<?xml version="1.0"?>
<svg version="1.1" xmlns="http://www.w3.org/2000/svg" xmlns:xlink="http://www.w3.org/1999/xlink" width="1024" height="1024">
    <desc iVinci="yes" version="4.4" gridStep="20" showGrid="no" snapToGrid="no" codePlatform="0"/>
    <g id="Layer1">
        <g id="Shape1">
            <desc type="0" basicInfo-basicType="0" basicInfo-roundedRectRadius="12" basicInfo-polygonSides="6" basicInfo-starPoints="5" bounding="rect(-44.749,-54.3713,89.4981,108.742)" text="" font-familyName="" font-pixelSize="20" font-bold="0" font-underline="0" font-alignment="1" strokeStyle="0" markerStart="0" markerEnd="0" shadowEnabled="0" shadowOffsetX="0" shadowOffsetY="2" shadowBlur="4" shadowOpacity="160" blurEnabled="0" blurRadius="4" transform="matrix(6.96122,0,0,6.96121,512,495.279)" pers-center="0,0" pers-size="0,0" pers-start="0,0" pers-end="0,0" locked="0" mesh="" flag=""/>
            <path id="shapePath1" d="M698.735,408.124 C698.735,375.51 699.25,334.662 698.505,302.055 C698.178,288.007 696.64,273.681 693.312,260.051 C669.497,162.601 575.166,101.997 476.115,119.922 C388.431,135.787 323.156,214.023 323.156,303.252 L323.156,399.77 L323.156,407.915 C319.85,407.915 317.629,407.908 315.387,407.915 L235.459,407.915 C216.155,407.915 200.492,423.571 200.492,442.881 L200.492,838.8 C200.492,858.104 216.155,873.766 235.459,873.766 L788.535,873.766 C807.852,873.766 823.508,858.104 823.508,838.8 L823.508,442.881 C823.508,423.571 807.852,407.915 788.535,407.915 L698.735,408.124 M563.221,778.927 L460.369,778.927 C444.204,778.927 431.11,765.604 431.11,749.174 C431.11,748.737 431.159,748.291 431.173,747.852 C431.138,747.852 431.131,740.745 431.118,733.645 C431.11,725.784 434.675,703.787 445.465,687.881 C456.888,671.049 472.3,660.106 489.021,655.184 C466.981,646.198 451.458,624.568 451.458,599.32 C451.458,565.984 478.468,538.981 511.791,538.981 C545.128,538.981 572.124,565.984 572.124,599.32 C572.124,625.209 555.807,647.291 532.884,655.845 C549.117,661.087 564.467,671.948 576.551,688.612 C587.836,704.171 592.458,725.805 592.458,733.651 L592.458,747.872 C592.416,748.304 592.458,748.742 592.458,749.188 C592.465,765.604 579.37,778.927 563.221,778.927 M630.549,347.233 C619.676,379.332 599.085,405.046 577.574,430.155 C560.965,449.528 541.446,465.832 520.659,480.603 C519.657,481.321 518.586,481.912 515.891,483.576 C528.29,462.164 538.286,441.823 541.181,418.112 C511.708,425.088 483.911,422.039 457,410.177 C409.231,389.134 380.684,343.224 385.556,291.398 C389.545,248.746 412.984,218.006 450.442,198.152 C510.775,166.18 587.815,186.631 622.307,243.511 C642.404,276.633 642.718,311.321 630.549,347.233 " style="stroke:none;fill-rule:evenodd;fill:#000000;fill-opacity:1;"/>
        </g>
    </g>
</svg>
